PathFileType	4	(X/Y/Z)	Run_500 02
DataRate	CameraRate	NumFrames	NumMarkers	Units	OrigDataRate	OrigDataStartFrame	OrigNumFrames
120	120	7	42	mm	120	486	128
Frame#	Time	LASI			RASI			LPSI			RPSI			RTH1			RTH2			RTH3			LTH1			LTH2			LTH3			RTB1			RTB2			RTB3			LTB1			LTB2			LTB3			RCAL			RTOE			RMT5			LCAL			LTOE			LMT5			LACR			RACR			CLAV			C7			RUA1			RUA2			RUA3			RLEL			RMEL			LUA1			LUA2			LUA3			LLEL			LMEL			RFAsuperior			RFAradius			RFAulna			LFAsuperior			LFAradius			LFAulna		
		X1	Y1	Z1	X2	Y2	Z2	X3	Y3	Z3	X4	Y4	Z4	X5	Y5	Z5	X6	Y6	Z6	X7	Y7	Z7	X8	Y8	Z8	X9	Y9	Z9	X10	Y10	Z10	X11	Y11	Z11	X12	Y12	Z12	X13	Y13	Z13	X14	Y14	Z14	X15	Y15	Z15	X16	Y16	Z16	X17	Y17	Z17	X18	Y18	Z18	X19	Y19	Z19	X20	Y20	Z20	X21	Y21	Z21	X22	Y22	Z22	X23	Y23	Z23	X24	Y24	Z24	X25	Y25	Z25	X26	Y26	Z26	X27	Y27	Z27	X28	Y28	Z28	X29	Y29	Z29	X30	Y30	Z30	X31	Y31	Z31	X32	Y32	Z32	X33	Y33	Z33	X34	Y34	Z34	X35	Y35	Z35	X36	Y36	Z36	X37	Y37	Z37	X38	Y38	Z38	X39	Y39	Z39	X40	Y40	Z40	X41	Y41	Z41	X42	Y42	Z42	

486	  4.050000	792.444557	964.672825	-506.204651	802.632461	955.510212	-250.186798	623.071931	988.031453	-401.807939	630.595411	987.471603	-315.179287	771.609594	765.899485	-209.444300	844.510371	654.040942	-224.260940	782.197119	540.907731	-204.278971	772.942328	826.733380	-546.750410	854.891816	731.526705	-528.345255	822.719484	579.623061	-522.085692	674.251623	466.151692	-275.316236	637.457168	537.365432	-224.754201	535.161069	577.494493	-297.060919	861.263124	348.943195	-439.962656	783.351537	261.972182	-487.523415	758.373476	187.270110	-413.512725	488.908466	743.248069	-320.380847	346.879046	574.877204	-301.728394	357.018415	620.967195	-218.461796	595.222343	109.827952	-423.166386	809.622850	 73.285072	-399.606687	784.361841	 58.043313	-491.351849	789.044588	1398.050801	-596.080102	804.262470	1419.886918	-221.742770	893.521044	1357.387181	-379.715924	766.588538	1456.850843	-417.757835	765.679888	1322.815226	-149.986342	767.795210	1250.098858	-146.945950	674.734561	1258.566821	-105.303144	690.552100	1172.713500	-57.670116	632.863792	1154.812631	-120.564672	752.447110	1331.438448	-653.530454	696.532800	1257.216362	-646.425105	739.184243	1252.808627	-709.941575	722.827689	1160.953287	-773.081112	705.261100	1094.462198	-718.722653	757.242113	1119.851756	-75.716716	865.177465	1015.778055	-154.987048	817.490875	978.204291	-121.479188	792.395684	1179.709904	-766.743184	946.853563	1188.936767	-677.844924	953.825387	1139.401837	-725.441814	
487	  4.058333	789.967447	966.276471	-507.864432	800.114936	958.445460	-250.526080	621.509679	990.821542	-403.568829	628.572382	989.554251	-316.871140	778.546597	769.909725	-209.813375	863.507830	664.383128	-226.684248	809.126018	547.815508	-203.814059	765.617770	825.297684	-547.375835	840.067456	723.657834	-529.939276	799.808993	574.675582	-521.639774	706.906767	468.021645	-275.195531	667.421743	536.517586	-223.838023	562.526346	571.918415	-296.765058	828.315497	341.128793	-439.520232	747.445250	257.068509	-486.632826	718.798608	184.603937	-413.489991	504.708527	736.916953	-315.781512	376.000834	557.900485	-304.017278	382.150551	601.470457	-219.026057	553.211669	111.127570	-423.354561	767.340218	 72.873873	-399.670638	741.764363	 58.029895	-491.675082	793.315478	1397.386791	-596.089977	799.345468	1422.730982	-221.987788	892.551482	1360.627061	-376.813098	766.439658	1458.149926	-418.407502	757.429151	1327.256142	-150.000144	758.737031	1254.770515	-145.542201	662.960836	1264.585302	-110.186264	675.589090	1179.342173	-59.050555	621.282613	1161.579858	-124.873321	760.044446	1328.620094	-653.261103	707.881277	1251.422330	-644.101174	750.383815	1248.521459	-707.830633	741.055098	1155.010868	-770.538817	724.545971	1088.477098	-716.160891	740.897170	1122.626130	-73.234254	847.493969	1010.661546	-143.089644	796.045844	976.010126	-112.201846	810.457248	1175.452631	-761.562296	961.672522	1189.990920	-669.344315	971.206740	1140.337173	-716.761330	
488	  4.066667	787.833407	967.605950	-508.480624	798.571754	961.365720	-251.602422	620.371126	993.384636	-405.918560	627.063915	991.262875	-319.519007	786.164215	776.296692	-210.384032	881.888070	678.040046	-229.625810	835.886685	557.880187	-204.148929	756.896373	823.733016	-548.153771	824.686774	716.249399	-531.563596	777.389741	571.499460	-522.155080	738.933285	471.555865	-275.840949	694.908375	536.518433	-224.392826	587.916195	565.275430	-297.681567	793.647464	335.675980	-438.709004	710.934081	254.200628	-486.436809	679.157526	183.473840	-413.702213	515.812341	726.275247	-312.781520	404.741452	535.885801	-306.237899	406.232046	577.511236	-219.967444	511.667820	113.199442	-423.444688	725.339226	 72.641246	-399.799153	699.372143	 58.222137	-491.890747	797.831962	1398.063772	-595.366562	794.218447	1426.701571	-222.115823	891.604683	1364.733192	-374.156721	766.031973	1460.090882	-418.522739	748.614012	1333.213478	-150.003337	749.088428	1260.932133	-144.052993	651.115367	1272.210595	-114.756067	660.320441	1187.684376	-60.238382	609.750857	1169.937755	-129.043852	767.966216	1327.253252	-652.484206	718.945105	1247.646365	-641.386960	761.220194	1245.852412	-705.111144	758.076395	1151.136460	-766.871711	742.825222	1084.896147	-712.034119	724.067059	1127.762434	-70.292416	830.019035	1010.001752	-132.176532	775.292524	977.563460	-104.833607	827.492904	1173.008482	-755.940490	975.662655	1192.840379	-660.020234	987.569374	1142.775149	-706.682437	
489	  4.075000	786.349215	968.570570	-509.089097	798.171008	964.696443	-253.119280	619.907774	996.028751	-408.305991	626.444118	993.310475	-322.595482	794.208807	784.713167	-211.070878	898.705524	694.093656	-232.633001	861.505214	570.533796	-205.322886	747.460869	822.673858	-548.804797	809.863577	710.783080	-532.739860	755.169522	570.001594	-523.254596	769.951297	476.373443	-277.592893	720.087258	536.866094	-226.233640	612.345542	556.854994	-299.544849	758.236248	332.882918	-438.309592	674.078694	253.706924	-487.077894	639.860661	184.079971	-414.241590	523.622416	710.603746	-311.511319	434.158940	509.270095	-308.201133	430.228620	549.441089	-221.170696	470.932326	116.675080	-423.896234	683.834015	 72.493529	-400.107278	657.192284	 58.360181	-491.994483	802.555530	1400.096193	-594.281711	789.113080	1431.560758	-222.190434	891.013243	1369.183573	-371.312843	765.829675	1462.976407	-418.428559	739.578350	1340.494375	-150.170288	739.016732	1268.556462	-142.545461	639.397571	1281.172330	-118.935785	644.887034	1197.364507	-61.476735	598.262394	1179.623224	-132.949305	775.991905	1327.409623	-651.322394	729.355246	1246.076918	-638.844881	771.824103	1244.791521	-702.012663	773.794665	1149.072534	-762.376500	759.785327	1083.536541	-706.708546	706.989799	1134.984458	-66.987670	813.233253	1013.394201	-122.218700	755.803192	982.544105	-98.924961	843.209225	1172.328001	-750.143464	988.427783	1197.390274	-650.170615	1002.584621	1146.623764	-695.502108	
490	  4.083333	785.704628	969.056612	-510.471500	798.746000	969.052288	-254.777272	620.379769	999.013561	-410.388662	626.904723	996.361793	-325.546527	802.232994	794.480994	-211.765902	913.583661	711.318915	-235.160862	885.231594	584.942785	-207.290579	738.742865	822.797533	-549.199519	796.268758	707.943521	-533.324410	732.559300	570.170651	-524.355567	799.956518	481.949940	-280.552415	743.759960	536.916179	-228.849719	636.771994	546.065167	-301.862328	722.859555	332.528378	-438.932678	636.895843	255.782552	-488.605395	601.012558	186.561608	-415.221374	529.789195	689.539216	-311.730372	465.430120	478.801432	-309.808502	455.462665	517.704183	-222.465447	431.192216	122.074077	-425.156033	642.751942	 72.461062	-400.672738	614.970708	 58.313269	-491.938584	807.572489	1403.447719	-593.062484	784.178737	1437.060329	-222.390854	890.774859	1373.982698	-368.054636	766.164071	1466.960051	-418.400258	730.745820	1348.830657	-150.587091	728.904438	1277.487918	-141.087128	628.138019	1291.212234	-122.752890	629.662028	1208.200830	-62.975817	586.827929	1190.438114	-136.544433	784.081086	1329.176042	-649.891767	738.852537	1246.849154	-636.872883	782.371455	1245.391845	-698.711167	788.368484	1148.702107	-757.364806	775.124454	1084.167415	-700.604190	690.189217	1144.157897	-63.768000	797.358806	1020.128130	-113.135672	737.837585	990.430525	-93.896187	857.555722	1173.367062	-744.166936	999.694361	1203.301449	-639.944725	1016.031309	1151.643867	-683.524159	
491	  4.091667	785.963760	969.033166	-512.684385	799.909034	974.576006	-256.572219	621.917491	1002.490611	-412.117312	628.432530	1000.668817	-327.954817	809.887345	804.901077	-212.446238	926.578288	728.681502	-236.837703	906.684240	600.238385	-209.903590	732.148218	824.362174	-549.444133	783.941448	707.473246	-533.565425	709.342094	572.373778	-525.019062	829.142677	487.703773	-284.313778	766.768367	536.093757	-231.736556	661.429510	532.880756	-304.236146	688.031627	334.456489	-440.733984	599.672769	260.638921	-490.983494	562.882225	191.155619	-416.803769	535.954423	663.068716	-312.972497	499.529259	445.595800	-311.125610	483.416938	483.019088	-223.685783	392.751749	129.712732	-427.441373	601.976256	 72.569602	-401.551126	572.545077	 58.092992	-491.683029	813.005933	1408.019623	-591.775521	779.499090	1442.983668	-222.849964	890.678377	1379.443470	-364.489833	767.035750	1471.884421	-418.551659	722.465755	1357.927323	-151.247980	719.167806	1287.394587	-139.781919	617.665841	1302.127930	-126.283147	615.121521	1220.138922	-64.799965	575.590187	1202.195993	-139.863865	792.337245	1332.517707	-648.320446	747.351547	1249.887135	-635.724029	792.992468	1247.656795	-695.395978	801.988657	1149.999842	-752.158858	788.534778	1086.558344	-694.177210	674.253871	1155.165794	-61.151519	782.391323	1029.363760	-104.884965	721.355380	1000.566624	-89.295391	870.631503	1176.001034	-737.874280	1009.323669	1210.125054	-629.341984	1027.755447	1157.526367	-670.952507	
492	  4.100000	787.128690	968.817989	-515.149174	801.304828	980.849916	-258.720918	624.456671	1006.528414	-413.651384	630.849422	1006.090491	-329.604779	817.111671	815.485154	-213.192527	937.783898	745.608700	-237.677644	925.749017	615.705159	-212.937546	728.164816	827.059650	-549.733583	772.466514	708.631025	-533.904114	685.919506	577.130283	-525.108499	857.603330	493.084228	-288.044108	789.560311	534.003719	-234.638547	685.911848	517.752947	-306.540042	654.155953	338.851192	-443.392250	563.175593	268.421529	-494.041610	526.127403	198.054667	-419.155982	543.611490	631.534230	-314.777445	537.067675	411.000539	-312.385557	515.353827	446.406028	-224.775792	356.145936	139.734198	-430.676858	561.574350	 72.762940	-402.718035	530.128591	 57.831916	-491.306264	818.867661	1413.633770	-590.392670	775.149099	1449.166704	-223.546145	890.495946	1385.788514	-360.939735	768.176635	1477.370939	-418.799218	714.949729	1367.518943	-152.101255	710.121202	1297.846901	-138.763499	608.189483	1313.747194	-129.599682	601.658755	1233.069895	-66.898271	564.832866	1214.666990	-143.006173	800.826742	1337.232116	-646.709721	754.963547	1254.859648	-635.496874	803.699735	1251.465942	-692.254843	814.745915	1152.912852	-747.086046	799.784956	1090.486116	-687.922991	659.594530	1167.726823	-59.447550	768.210020	1040.280512	-97.485649	706.140669	1012.250152	-84.896824	882.566975	1179.989637	-731.198285	1017.280971	1217.432817	-618.332623	1037.641691	1163.950723	-657.901180	
